HIERARCHY
ROOT Hips
{
	OFFSET 0.000000 0.000000 0.000000
	CHANNELS 6 Xposition Yposition Zposition Xrotation Yrotation Zrotation
	JOINT LeftUpLeg_virtual
	{
		OFFSET 0.000000 0.000000 0.000000
		CHANNELS 3 Xrotation Yrotation Zrotation
		JOINT LeftUpLeg
		{
			OFFSET 11.394100 -6.187798 -0.413800
			CHANNELS 3 Xrotation Yrotation Zrotation
			JOINT LeftLeg
			{
				OFFSET 0.430247 -32.302673 3.732800
				CHANNELS 3 Xrotation Yrotation Zrotation
				JOINT LeftFoot
				{
					OFFSET -0.430247 -48.264931 -6.423300
					CHANNELS 3 Xrotation Yrotation Zrotation
					JOINT LeftToeBase
					{
						OFFSET 4.230900 -16.068199 23.438400
						CHANNELS 3 Xrotation Yrotation Zrotation
						JOINT LeftToe_End
						{
							OFFSET 4.510700 0.695400 19.974600
							CHANNELS 3 Xrotation Yrotation Zrotation
							End Site
							{
								OFFSET 0 0 0
							}
						}
					}
				}
			}
		}
	}
	JOINT RightUpLeg_virtual
	{
		OFFSET 0.000000 0.000000 0.000000
		CHANNELS 3 Xrotation Yrotation Zrotation
		JOINT RightUpLeg
		{
			OFFSET -11.333700 -6.187798 -0.413800
			CHANNELS 3 Xrotation Yrotation Zrotation
			JOINT RightLeg
			{
				OFFSET -0.430392 -32.302628 3.733000
				CHANNELS 3 Xrotation Yrotation Zrotation
				JOINT RightFoot
				{
					OFFSET 0.430392 -48.264973 -6.423500
					CHANNELS 3 Xrotation Yrotation Zrotation
					JOINT RightToeBase
					{
						OFFSET -4.230900 -16.068199 23.438400
						CHANNELS 3 Xrotation Yrotation Zrotation
						JOINT RightToe_End
						{
							OFFSET -4.510700 0.695400 19.974600
							CHANNELS 3 Xrotation Yrotation Zrotation
							End Site
							{
								OFFSET 0 0 0
							}
						}
					}
				}
			}
		}
	}
	JOINT Spine_virtual
	{
		OFFSET 0.000000 0.000000 0.000000
		CHANNELS 3 Xrotation Yrotation Zrotation
		JOINT Spine
		{
			OFFSET -0.002400 12.777504 0.315300
			CHANNELS 3 Xrotation Yrotation Zrotation
			JOINT Spine1
			{
				OFFSET -0.002067 5.816869 0.032633
				CHANNELS 3 Xrotation Yrotation Zrotation
				JOINT Spine1_split
				{
					OFFSET -0.002067 5.816869 0.032633
					CHANNELS 3 Xrotation Yrotation Zrotation
					JOINT Spine2
					{
						OFFSET -0.002067 5.816869 0.032633
						CHANNELS 3 Xrotation Yrotation Zrotation
						JOINT Neck_virtual
						{
							OFFSET 0.000000 0.000000 0.000000
							CHANNELS 3 Xrotation Yrotation Zrotation
							JOINT Neck
							{
								OFFSET -0.003700 21.199493 -0.826900
								CHANNELS 3 Xrotation Yrotation Zrotation
								JOINT Head
								{
									OFFSET 0.000000 20.442200 4.834800
									CHANNELS 3 Xrotation Yrotation Zrotation
									JOINT HeadTop_End
									{
										OFFSET 0.000000 34.668396 4.968400
										CHANNELS 3 Xrotation Yrotation Zrotation
										End Site
										{
											OFFSET 0 0 0
										}
									}
								}
							}
						}
						JOINT LeftShoulder_virtual
						{
							OFFSET 0.000000 0.000000 0.000000
							CHANNELS 3 Xrotation Yrotation Zrotation
							JOINT LeftShoulder
							{
								OFFSET 3.288150 8.794197 -1.372250
								CHANNELS 3 Xrotation Yrotation Zrotation
								JOINT LeftShoulder_split
								{
									OFFSET 3.288150 8.794197 -1.372250
									CHANNELS 3 Xrotation Yrotation Zrotation
									JOINT LeftArm
									{
										OFFSET 11.953299 -2.279007 -0.146200
										CHANNELS 3 Xrotation Yrotation Zrotation
										JOINT LeftForeArm
										{
											OFFSET 18.448900 0.000000 0.000000
											CHANNELS 3 Xrotation Yrotation Zrotation
											JOINT LeftHand
											{
												OFFSET 29.527798 0.000000 0.000000
												CHANNELS 3 Xrotation Yrotation Zrotation
												End Site
												{
													OFFSET 0 0 0
												}
											}
										}
									}
								}
							}
						}
						JOINT RightShoulder_virtual
						{
							OFFSET 0.000000 0.000000 0.000000
							CHANNELS 3 Xrotation Yrotation Zrotation
							JOINT RightShoulder
							{
								OFFSET -3.249400 8.794197 -1.372250
								CHANNELS 3 Xrotation Yrotation Zrotation
								JOINT RightShoulder_split
								{
									OFFSET -3.249400 8.794197 -1.372250
									CHANNELS 3 Xrotation Yrotation Zrotation
									JOINT RightArm
									{
										OFFSET -11.953299 -2.279007 -0.146200
										CHANNELS 3 Xrotation Yrotation Zrotation
										JOINT RightForeArm
										{
											OFFSET -18.448900 0.000000 0.000000
											CHANNELS 3 Xrotation Yrotation Zrotation
											JOINT RightHand
											{
												OFFSET -29.527802 0.000000 0.000000
												CHANNELS 3 Xrotation Yrotation Zrotation
												End Site
												{
													OFFSET 0 0 0
												}
											}
										}
									}
								}
							}
						}
					}
				}
			}
		}
	}
}
MOTION
Frames: 10
Frame Time: 0.03333333
-4.591057 100.283722 -7.938869 0.000000 0.000000 0.000000 -10.550126 -1.524291 4.333544 -9.103644 7.181625 -2.450899 24.981733 2.974837 -1.675522 -10.493247 4.386325 4.380053 -0.536565 0.509148 0.072225 0.000000 0.000000 0.000000 -9.674036 -2.101862 4.078116 -17.158427 -10.778691 -16.416930 28.269547 -0.328964 -1.117814 -0.598108 -14.992754 3.034955 -0.602346 0.214983 -1.430859 0.000000 0.000000 0.000000 -9.517344 -1.366441 4.233113 6.713897 1.572802 -3.110001 14.355762 2.745890 -1.567549 0.455133 -1.610350 0.251736 0.000000 0.000000 0.000000 14.075794 2.509179 -2.132989 29.804394 -1.842197 -5.933132 1.006806 -1.856975 -5.130383 0.000000 0.000000 0.000000 14.948448 3.100577 -2.982430 -3.118080 -23.206592 -26.307259 -1.759595 -0.632538 -3.910343 -0.940526 -43.118127 -29.661681 9.618518 -24.623341 0.239328 0.000000 0.000000 0.000000 14.488672 3.118115 -2.478232 0.243016 23.058399 23.265142 -0.093944 0.676302 2.132062 -9.256409 20.376264 39.403406 35.832118 42.485764 -15.989415 0.000000 0.000000 0.000000 
-3.786998 100.830475 -7.597126 0.000000 0.000000 0.000000 -11.285481 -2.393432 4.872490 -6.027421 7.952717 -3.294906 22.650874 2.767128 -1.845477 -10.160045 4.021117 4.097120 0.430085 0.638747 -0.103206 0.000000 0.000000 0.000000 -10.472983 -2.059420 4.614038 -14.539118 -11.237725 -17.489753 26.104046 -0.111035 -1.238132 -0.236183 -13.931943 3.216274 -0.409781 0.080035 -1.337466 0.000000 0.000000 0.000000 -10.922457 -1.378384 4.680970 6.596718 1.477720 -3.827903 12.958660 2.841904 -1.966489 0.803907 -1.666431 0.216232 0.000000 0.000000 0.000000 12.599442 2.611632 -2.358556 28.254522 -1.060802 -5.982389 0.479652 -0.575017 -5.380323 0.000000 0.000000 0.000000 13.540578 3.186362 -3.123871 -1.853971 -22.159733 -22.845542 -2.139048 -0.505497 -3.513307 -1.153122 -40.145840 -32.425281 8.413623 -23.741099 0.071506 0.000000 0.000000 0.000000 13.211946 3.187650 -2.678828 0.816727 21.459729 22.006011 0.120801 0.611609 2.456452 -4.428838 22.787649 40.387943 33.710341 44.853647 -15.135421 0.000000 0.000000 0.000000 
-3.151892 101.081436 -7.178654 0.000000 0.000000 0.000000 -11.429222 -3.005547 5.159175 -4.078777 8.437287 -3.989732 20.999741 2.674806 -1.898877 -9.950206 3.650179 3.857979 0.953851 0.717294 -0.146372 0.000000 0.000000 0.000000 -10.752082 -1.912327 4.952601 -12.815682 -11.369242 -18.359752 24.591164 0.159844 -1.270851 -0.008841 -12.919766 3.626745 -0.925168 -0.013764 -1.495042 0.000000 0.000000 0.000000 -11.545385 -1.155431 4.908379 6.383128 1.304627 -4.471383 11.548221 2.896450 -2.330302 0.992014 -1.764019 0.045130 0.000000 0.000000 0.000000 11.208331 2.661248 -2.585733 26.644894 -0.432254 -5.321652 -0.360071 0.431069 -5.309716 0.000000 0.000000 0.000000 12.137218 3.215029 -3.195060 -0.461252 -21.102305 -18.619453 -2.614507 -0.443044 -3.153762 -1.072063 -35.595247 -35.158436 8.797686 -24.379522 0.542237 0.000000 0.000000 0.000000 11.855614 3.176571 -2.861983 1.495129 19.684513 19.843086 0.263105 0.641593 2.630768 -0.441300 23.744196 41.889379 32.588007 46.547954 -15.195702 0.000000 0.000000 0.000000 
-2.733171 101.102333 -6.794014 0.000000 0.000000 0.000000 -11.241275 -3.311733 5.197839 -3.225534 8.789093 -4.457900 20.063542 2.720129 -1.871349 -9.735271 3.308930 3.843226 0.975361 0.739504 -0.022505 0.000000 0.000000 0.000000 -10.626954 -1.848285 5.103922 -11.950032 -11.200554 -19.070067 23.685373 0.461499 -1.212243 0.362677 -12.036202 4.265889 -1.968032 -0.076552 -1.822665 0.000000 0.000000 0.000000 -11.579929 -0.958884 4.900002 6.009396 1.098863 -4.928297 10.185345 2.884134 -2.607361 1.383769 -1.905302 -0.016254 0.000000 0.000000 0.000000 9.934526 2.633864 -2.775698 24.808191 0.042312 -4.227336 -1.571408 1.182153 -4.961379 0.000000 0.000000 0.000000 10.857530 3.142107 -3.230786 0.889311 -19.954644 -14.331692 -3.188315 -0.676774 -3.208157 -0.179758 -29.818591 -37.741904 10.661340 -25.327593 1.419659 0.000000 0.000000 0.000000 10.507602 3.092257 -3.006357 2.158420 17.859567 17.156920 -0.069910 0.892808 2.867932 1.928875 22.829359 44.042477 32.616059 47.130539 -16.093017 0.000000 0.000000 0.000000 
-2.496003 101.008514 -6.486801 0.000000 0.000000 0.000000 -10.944453 -3.478647 5.064872 -3.095236 9.088444 -4.768719 19.645335 2.958166 -1.777856 -9.676338 3.133866 4.246274 0.874449 0.726124 0.088906 0.000000 0.000000 0.000000 -10.298605 -2.032577 5.105248 -11.704043 -10.902040 -19.615086 23.249802 0.659829 -1.082263 0.873324 -11.472114 4.818719 -2.889366 -0.130568 -2.125762 0.000000 0.000000 0.000000 -11.209339 -1.039130 4.706076 5.504973 0.900904 -5.168423 8.905001 2.810168 -2.761092 1.619830 -1.704282 0.263750 0.000000 0.000000 0.000000 8.825943 2.538061 -2.893769 22.765302 0.393996 -3.110054 -2.963947 1.634530 -4.452624 0.000000 0.000000 0.000000 9.730474 2.991888 -3.247217 2.026288 -18.689243 -10.742685 -4.007983 -0.984268 -3.350533 0.763422 -23.449569 -40.420131 13.730999 -24.994367 2.395475 0.000000 0.000000 0.000000 9.250858 2.967983 -3.079101 2.702201 16.163677 14.538901 -0.668141 1.313477 3.239719 2.509270 20.109807 46.806880 33.547249 46.467259 -17.359103 0.000000 0.000000 0.000000 
-2.357511 100.903748 -6.223709 0.000000 0.000000 0.000000 -10.636158 -3.503129 4.857546 -3.347343 9.333803 -4.995127 19.401501 3.322836 -1.621274 -9.841403 3.139340 4.897489 1.044869 0.724091 0.037269 0.000000 0.000000 0.000000 -9.926812 -2.430697 5.010999 -11.724174 -10.598508 -19.956746 22.971547 0.652365 -0.898517 1.200314 -11.314062 4.971649 -3.187991 -0.177146 -2.263312 0.000000 0.000000 0.000000 -10.726794 -1.431279 4.441763 4.870521 0.722839 -5.211942 7.740945 2.696403 -2.791912 1.822949 -1.612967 0.562012 0.000000 0.000000 0.000000 7.856285 2.402010 -2.902709 20.576196 0.614690 -2.343704 -4.172932 1.851775 -3.938268 0.000000 0.000000 0.000000 8.773165 2.799721 -3.199821 2.883730 -17.377451 -8.108870 -4.911187 -1.296282 -3.557332 0.525668 -16.794926 -43.478116 17.141756 -22.938569 2.974909 0.000000 0.000000 0.000000 8.155981 2.815193 -3.055167 3.081441 14.767632 12.447752 -1.457442 1.608831 3.884081 1.652823 16.032636 49.989407 34.971255 44.755371 -18.448310 0.000000 0.000000 0.000000 
-2.303167 100.870743 -5.992981 0.000000 0.000000 0.000000 -10.386050 -3.518648 4.677194 -3.469735 9.537604 -5.153517 19.062143 3.610634 -1.423761 -10.173527 3.173536 5.409429 1.234663 0.754623 -0.098981 0.000000 0.000000 0.000000 -9.648358 -2.861854 4.917066 -11.660371 -10.426833 -20.085952 22.633647 0.446945 -0.713212 1.218087 -11.484573 4.715198 -2.987269 -0.189556 -2.227719 0.000000 0.000000 0.000000 -10.284561 -2.021371 4.201891 4.209980 0.575935 -5.139269 6.740394 2.559578 -2.742068 2.078890 -1.480821 0.878878 0.000000 0.000000 0.000000 7.004552 2.263813 -2.806443 18.362253 0.733368 -2.104341 -4.911628 1.924413 -3.554941 0.000000 0.000000 0.000000 7.922152 2.607235 -3.083556 3.425422 -16.017724 -6.568191 -5.826998 -1.633016 -3.378162 -1.013432 -9.867440 -46.511860 20.423510 -19.941320 2.907733 0.000000 0.000000 0.000000 7.278040 2.653316 -2.951631 3.335106 13.725964 11.153598 -2.027917 2.012107 4.131672 0.085033 11.400359 53.087051 36.541994 42.468586 -18.969442 0.000000 0.000000 0.000000 
-2.260879 100.909470 -5.683708 0.000000 0.000000 0.000000 -10.227737 -3.673111 4.576116 -3.286181 9.645106 -5.237451 18.675544 3.714963 -1.192132 -10.449579 3.135345 5.588552 1.198186 0.807277 -0.277432 0.000000 0.000000 0.000000 -9.524566 -3.268923 4.852918 -11.374738 -10.394747 -20.052522 22.226738 0.149542 -0.558208 1.085289 -11.845188 4.356246 -2.818976 -0.160571 -2.084805 0.000000 0.000000 0.000000 -9.993705 -2.596969 4.065909 3.604289 0.456167 -5.041095 5.922644 2.431623 -2.666026 1.949229 -0.959053 0.982984 0.000000 0.000000 0.000000 6.282101 2.149762 -2.638439 16.241708 0.729540 -2.367766 -4.974350 1.784301 -3.336205 0.000000 0.000000 0.000000 7.160470 2.461973 -2.906366 3.725657 -14.701864 -5.886272 -6.343878 -2.277890 -2.855968 -3.683814 -2.987218 -49.109600 23.240383 -17.070890 2.253135 0.000000 0.000000 0.000000 6.613488 2.499968 -2.802962 3.463343 13.001080 10.625464 -2.389171 2.330909 3.770143 -1.486663 6.781685 55.691897 37.897066 39.967204 -18.732431 0.000000 0.000000 0.000000 
-2.216022 100.982391 -5.300629 0.000000 0.000000 0.000000 -10.169942 -3.942005 4.578575 -2.783695 9.733180 -5.246103 18.477373 3.635962 -0.951023 -10.557383 2.910230 5.499716 0.980602 0.853119 -0.452722 0.000000 0.000000 0.000000 -9.578919 -3.599588 4.845452 -10.920959 -10.449056 -19.951645 21.754159 -0.043174 -0.464953 0.978272 -12.119171 4.300086 -2.970490 -0.091398 -1.954505 0.000000 0.000000 0.000000 -9.866825 -2.939178 4.067702 3.108687 0.376628 -4.957872 5.299499 2.310516 -2.604404 1.849461 -0.491440 0.721745 0.000000 0.000000 0.000000 5.676884 2.048794 -2.449302 14.246015 0.617938 -2.885960 -4.429108 1.353830 -3.182608 0.000000 0.000000 0.000000 6.519407 2.360803 -2.700761 3.871576 -13.555385 -5.611422 -6.450008 -3.055036 -2.429301 -6.443562 3.230787 -51.096041 25.408696 -15.255791 1.288776 0.000000 0.000000 0.000000 6.125696 2.356431 -2.641955 3.455230 12.514317 10.600831 -2.562925 2.283798 2.678085 -2.641077 2.771884 57.645540 38.797701 37.697832 -17.870615 0.000000 0.000000 0.000000 
-2.200557 101.014374 -4.787987 0.000000 0.000000 0.000000 -10.224853 -4.392309 4.667579 -2.029386 9.910720 -5.200463 18.509346 3.461243 -0.728863 -10.600323 2.504631 5.335962 0.741876 0.875040 -0.619139 0.000000 0.000000 0.000000 -9.754740 -3.877568 4.879395 -10.439093 -10.522153 -19.884687 21.342085 -0.048778 -0.454669 0.913652 -12.190284 4.642916 -3.367133 -0.011281 -1.855887 0.000000 0.000000 0.000000 -9.878347 -3.013961 4.175991 2.810903 0.352273 -4.880980 4.846556 2.200584 -2.588041 1.558476 0.071306 0.371381 0.000000 0.000000 0.000000 5.237621 1.959578 -2.304465 12.359282 0.430770 -3.377508 -3.550640 0.553378 -2.946290 0.000000 0.000000 0.000000 5.999222 2.303423 -2.540231 3.937963 -12.729817 -5.481121 -6.041319 -3.860917 -2.049825 -8.005246 8.069148 -52.466105 27.082824 -14.846572 0.324418 0.000000 0.000000 0.000000 5.779165 2.235509 -2.510289 3.335293 12.122052 10.781840 -2.636931 2.227425 1.309411 -3.066901 -0.270230 59.033031 39.192035 35.919357 -16.654269 0.000000 0.000000 0.000000 
